<svg xmlns="http://www.w3.org/2000/svg" viewBox="0 0 512 512">
    <path d="m247 278c0-8-3-13-10-18l-197-113c-3-2-7-3-11-3-11 0-19 9-19 20l0 227c1 13 8 22 19 22 4 0 8-1 11-3l197-114c6-4 10-11 10-18z m-213 107l0-214 185 107z m349-385l-245 0c-25 0-46 20-46 46l0 104 24 13 0-117c0-13 10-23 23-23l225 0 0 78c0 32 15 49 48 49l68 0 0 316c0 13-10 23-23 23l-317 0c-13 0-23-10-23-23l0-75-24 13 0 62c0 26 21 46 46 46l317 0c25 0 46-20 46-46l0-337z m28 127c-20 0-25-5-25-25l0-65 83 90z m18 293l-264 0c-6 0-11 5-11 11 0 6 5 11 11 11l264 0c6 0 11-5 11-11 0-6-5-11-11-11z m0-51l-264 0c-6 0-11 5-11 11 0 6 5 11 11 11l264 0c6 0 11-5 11-11 0-6-5-11-11-11z"/>
</svg>